<?xml version="1.0" encoding="UTF-8"?>
<svg xmlns="http://www.w3.org/2000/svg" xmlns:xlink="http://www.w3.org/1999/xlink" xmlns:svgjs="http://svgjs.com/svgjs" version="1.1" width="512" height="512" x="0" y="0" viewBox="0 0 512 512" style="enable-background:new 0 0 512 512" xml:space="preserve" class="">
  <g>
    <path d="M210.795 176.235c8.106 2.858 16.459-1.379 19.233-8.965 2.803-7.747-1.113-16.362-8.965-19.233-8.016-2.858-16.437 1.318-19.233 8.965-2.803 7.747 1.114 16.36 8.965 19.233z" fill="#ffffff" data-original="#000000" opacity="1" class=""></path>
    <path d="M264.057 220.298c51.475-1.392 102.041-19.79 142.397-51.812 5.16-4.087 11.254-6.462 17.578-7.989l5.918-16.254a14.974 14.974 0 0 0-4.775-16.875c-50.435-40.02-113.672-63.032-178.052-64.805-56.308-1.538-109.834-21.259-154.804-55.111L86.87 3.233A15.035 15.035 0 0 0 73.481.567a14.979 14.979 0 0 0-10.005 9.302L.908 180.014a14.99 14.99 0 0 0 4.761 16.875c35.391 28.076 78.108 47.558 122.047 57.437 42.366-20.772 89.019-32.727 136.341-34.028zm22.346-32.515c2.834-7.786 11.442-11.799 19.226-8.967 7.786 2.834 11.799 11.442 8.965 19.226-2.833 7.786-11.44 11.799-19.226 8.965-7.784-2.832-11.798-11.44-8.965-19.224zm-112.756-41.035c8.481-23.306 34.395-35.376 57.671-26.895 23.32 8.481 35.391 34.365 26.895 57.671-8.472 23.304-34.373 35.403-57.671 26.895-23.341-8.507-35.43-34.254-26.895-57.671zm-56.388-20.528c2.833-7.786 11.44-11.799 19.226-8.965 7.784 2.833 11.797 11.44 8.965 19.224-2.834 7.786-11.442 11.799-19.226 8.965-7.785-2.833-11.799-11.44-8.965-19.224zM143.617 502.123a14.948 14.948 0 0 0 10.005 9.302 14.985 14.985 0 0 0 13.418-2.681c45.396-36.021 102.305-57.733 160.225-59.315 64.38-1.772 128.617-24.785 179.066-64.805a14.99 14.99 0 0 0 4.761-16.875l-62.567-169.145a14.948 14.948 0 0 0-10.005-9.302 14.99 14.99 0 0 0-13.418 2.681c-45.396 36.021-102.305 56.733-160.225 58.301-64.365 1.772-127.603 24.785-178.052 64.819a14.974 14.974 0 0 0-4.775 16.875zm231.898-197.141c7.786-2.833 16.393 1.181 19.226 8.965 2.834 7.786-1.179 16.393-8.965 19.226-7.784 2.833-16.392-1.181-19.226-8.965-2.833-7.786 1.181-16.392 8.965-19.226zm-94.832 2.591c23.32-8.481 49.204 3.589 57.671 26.895 8.496 23.306-3.574 49.189-26.895 57.671-23.236 8.467-49.103-3.387-57.671-26.895-8.496-23.306 3.574-49.19 26.895-57.671zm-74.312 58.973c7.784-2.833 16.392 1.181 19.226 8.965 2.833 7.786-1.181 16.393-8.965 19.226-7.786 2.833-16.393-1.181-19.226-8.965-2.834-7.786 1.18-16.394 8.965-19.226z" fill="#ffffff" data-original="#000000" opacity="1" class=""></path>
    <path d="M301.205 363.955c7.861-2.875 11.765-11.495 8.965-19.233-2.796-7.643-11.213-11.825-19.233-8.965-7.861 2.875-11.765 11.494-8.965 19.233 2.82 7.709 11.351 11.836 19.233 8.965z" fill="#ffffff" data-original="#000000" opacity="1" class=""></path>
  </g>
</svg>
