<?xml version="1.0" encoding="utf-8"?>
<!-- Generator: Adobe Illustrator 27.0.0, SVG Export Plug-In . SVG Version: 6.00 Build 0)  -->
<svg version="1.1" id="Warstwa_1" xmlns="http://www.w3.org/2000/svg" xmlns:xlink="http://www.w3.org/1999/xlink" x="0px" y="0px"
	 viewBox="0 0 423.3 133.8" style="enable-background:new 0 0 423.3 133.8;" xml:space="preserve">
<style type="text/css">
	.st0{fill:#FFFFFF;}
	.st1{fill:#2D7CF2;fill-opacity:0;}
	.st2{fill:#2D7CF2;}
</style>
<g>
	<g>
		<path class="st0" d="M24.4,52.7h14.9v6C45,51.6,51.9,51,55.1,51c11.1,0,15.4,7,16.8,9.7c2.6-4.2,7.8-9.7,17-9.7
			c8.2,0,12.2,3.8,14.3,6.5c3.4,4.5,3.7,9.1,3.7,14.9v33.3H92V76.9c0-6.2-1.3-9.1-2.4-10.4c-2-2.4-4.7-2.7-6.1-2.7
			c-4,0-6.6,1.8-8.2,4.7c-2,3.2-2.1,7.5-2.1,10.3v27h-15V76.9c0-6.2-1.3-9.1-2.4-10.4c-2-2.4-4.7-2.7-6.1-2.7c-4,0-6.6,1.8-8.2,4.7
			c-2,3.2-2.1,7.5-2.1,10.3v27h-15V52.7z"/>
		<path class="st0" d="M190.6,52.7h14.9v6.9c2.8-3.9,7.8-8.6,16.4-8.6c4.7,0,11.5,1.3,15.7,6.5c3.7,4.5,4.2,9.8,4.2,14.9v33.3h-14.9
			V76.9c0-2.9-0.1-7.6-2.8-10.4c-2.3-2.4-5.5-2.7-7-2.7c-3.9,0-7,1.3-9.2,4.7s-2.3,7.2-2.3,10.3v27h-14.9L190.6,52.7L190.6,52.7z"/>
		<path class="st0" d="M308,90.9c-1.6,3.9-7.6,16.5-26.1,16.5c-8.6,0-15.1-2.4-20.3-7.5c-5.9-5.5-8.3-12.4-8.3-20.7
			c0-10.5,4.3-17,8.1-20.8c6.2-6.1,13.6-7.5,20-7.5c10.8,0,17,4.3,20.7,8.7c5.6,6.7,6.4,15.1,6.4,20.8v1.2h-39.7
			c0,3.2,0.9,6.6,2.6,8.9c1.6,2.2,4.9,5,10.6,5c5.6,0,9.9-2.7,12.4-7L308,90.9z M294.3,72.2c-1.2-7.2-7.1-10.6-12.6-10.6
			s-11.3,3.5-12.5,10.6H294.3z"/>
		<path class="st0" d="M337,97.8l-25.2-45h17.4l16.4,30.1l14.7-30.1h16.9l-42.7,81h-16.9L337,97.8z"/>
	</g>
	<g transform="matrix(1,0,0,1,960,545)">
		<g transform="matrix(1,0,0,1,0,-5)">
			<g>
				<path class="st1" d="M-834.5-426.2C-834.5-426.1-834.5-426.1-834.5-426.2c0,0,21.9,23.7,46.6,0.2"/>
				<path class="st2" d="M-810.8-408.5c-0.4,0-0.7,0-1.1,0c-15.6-0.5-26.6-11.3-28-12.8c-2.8-2.8-2.7-7.2,0.2-9.9
					c2.9-2.7,7.6-2.7,10.5,0.1l0.3,0.3c0,0.1,7.6,7.9,17.6,8.2c6.1,0.1,12.2-2.7,18.2-8.3c2.9-2.8,7.6-2.8,10.5,0s2.9,7.2,0,10
					C-791.3-412.7-800.8-408.5-810.8-408.5z M-839.8-421.2L-839.8-421.2L-839.8-421.2z"/>
			</g>
		</g>
	</g>
	<g transform="matrix(1,0,0,1,0,0)">
		<g transform="matrix(1,0,0,1,414.3080139160156,213.50399780273438)">
			<path class="st0" d="M-235.2-136.7c0.3,16.4-14.3,28.4-29,28.9c-18.3,0.7-31.9-13.6-31.8-28.8c0.1-16.2,13.3-29,30.3-29.1
				C-249.5-165.7-235-153.5-235.2-136.7z M-265.7-121.9c8.7,0,15.6-6.4,15.8-14.7c0.1-8.2-6.9-14.9-15.5-15
				c-8.7-0.1-15.7,6.5-15.7,14.7C-281.2-128.6-274.3-121.9-265.7-121.9z"/>
		</g>
	</g>
	<g>
		<path class="st0" d="M18.8,35.2L3.4,2.3H7l13.6,28.8L32.4,2.3H36L14.8,52.9h-3.6L18.8,35.2z"/>
		<path class="st0" d="M74.2,18.6c0,9.6-7.4,17-17,17s-17-7.4-17-17s7.4-17,17-17C66.9,1.6,74.2,9,74.2,18.6z M70.9,18.6
			c0-7.8-5.9-13.9-13.6-13.9c-7.8,0-13.6,6.1-13.6,13.9s5.9,13.9,13.6,13.9S70.9,26.4,70.9,18.6z"/>
		<path class="st0" d="M86.8,2.3v19.5c0,2.3,0.1,5.7,2.1,8.1s4.9,2.6,6.4,2.6s4.4-0.2,6.4-2.6s2.1-5.8,2.1-8.1V2.3h3.2v20.4
			c0,2.6-0.2,6-2.5,8.9c-2.5,3.2-6.3,4-9.2,4c-2.9,0-6.7-0.8-9.2-4c-2.2-2.9-2.5-6.3-2.5-8.9V2.3H86.8z"/>
	</g>
</g>
</svg>
