<?xml version="1.0" encoding="UTF-8"?>
<!-- Generator: Adobe Illustrator 26.5.2, SVG Export Plug-In . SVG Version: 6.00 Build 0)  -->
<svg xmlns="http://www.w3.org/2000/svg" xmlns:xlink="http://www.w3.org/1999/xlink" version="1.1" id="Warstwa_1" x="0px" y="0px" viewBox="0 0 312.3 689.4" style="enable-background:new 0 0 312.3 689.4;" xml:space="preserve">
<style type="text/css">
	.st0{fill:#2F2E41;}
	.st1{fill:#E6E6E6;}
	.st2{fill:#3F3D56;}
	.st3{fill:#347DEE;}
	.st4{opacity:0.2;enable-background:new    ;}
	.st5{fill:#FFFFFF;}
	.st6{fill:#FFB6B7;}
	.st7{fill:#F2F2F2;}
</style>
<path class="st0" d="M312.3,689.4h-121l-1.2-5.1l-6.5-28.1l-6.5,28.1l-1.2,5.1H51.5c-0.3-1.7-0.5-3.4-0.8-5.1  c-3.6-23.2-7.2-42.5-10.3-48c-8.8-16-0.6-6,8.8-15.4c9.4-9.4,0,0-5.5-12.1c-5.5-12.1,24.4-103.9,24.4-103.9l203.9,3  c0,0,37.7,65.9,38,75c0.2,5.2,1.3,57.3,2.1,101.3C312.3,686,312.3,687.7,312.3,689.4z"></path>
<path class="st1" d="M193.4,568.8c0,0,86.8,39.9,100.5,9.3s6.9-71.6-1.6-76.9s-17.8-30-5.4-47.1s-7.1-45.9-12.6-48.8  c-4.2-2.2-15.5-128.5-20.6-188.6c-1.6-19-14.3-35.2-32.2-41.5l0,0L201,141.9l-52.6-0.5l-26.3,36.5l-37.9,14.2L55.6,309.7  c0,0-0.3,52,5.7,107.4c1.9,17.3,4.3,34.9,7.6,51.3c7.7,38.8-25.9,70.8-6.7,78.1C115.8,567.1,193.4,568.8,193.4,568.8z"></path>
<path class="st2" d="M84.5,493.1l167-6c4.8,0,8.6,3.9,8.6,8.6v83.7c0,4.8-3.9,8.6-8.6,8.6l0,0h-157c-4.8,0-8.6-3.9-8.6-8.6l0,0  c-9.3-23.6-17-46.5-10-77.7C75.8,497,79.7,493.1,84.5,493.1z"></path>
<rect x="103.1" y="503.4" class="st0" width="137.4" height="2"></rect>
<rect x="103.1" y="532.3" class="st0" width="137.4" height="4.3"></rect>
<rect x="103.1" y="442" class="st3" width="126" height="61.5"></rect>
<rect x="103.1" y="442" class="st4" width="126" height="61.5"></rect>
<rect x="142.2" y="442" class="st3" width="86.9" height="61.5"></rect>
<path class="st5" d="M215.5,452.3h-17.2c-0.3,0-0.6-0.3-0.6-0.6s0.3-0.6,0.6-0.6h17.2c0.3,0,0.6,0.3,0.6,0.6  S215.9,452.3,215.5,452.3L215.5,452.3z"></path>
<path class="st5" d="M130.9,495.2h-17.2c-0.3,0-0.6-0.3-0.6-0.6c0-0.3,0.3-0.6,0.6-0.6h17.2c0.3,0,0.6,0.3,0.6,0.6  S131.2,495.2,130.9,495.2z"></path>
<path class="st5" d="M163.9,452.3h-52.8c-0.3,0-0.6-0.2-0.6-0.5c-0.1-0.3,0.1-0.6,0.4-0.7c0,0,0.1,0,0.1,0h53.1  c0.3,0.2,0.4,0.5,0.2,0.8C164.3,452.2,164.1,452.3,163.9,452.3z"></path>
<path class="st0" d="M248.6,587.2l-106.7,23.7c-7.1,0-12.9-5.8-12.9-12.9c-10.5-26.8-10.7-51.9,0-75.3c0-7.1,5.8-12.9,12.9-12.9  l106.7-23.7c7.1,0,12.9,5.8,12.9,12.9c9.9,28.1,18,55.7,0,75.3C261.4,581.5,255.7,587.2,248.6,587.2z"></path>
<path class="st2" d="M152.2,525.9l1.4,8.4l69.6-1.8l0,0c0.2-4.4-31.4-7.7-64.9-6.8L152.2,525.9z"></path>
<path class="st2" d="M152.2,546.9l1.4,8.4l69.6-1.8l0,0c0.2-4.4-31.4-7.7-64.9-6.8L152.2,546.9z"></path>
<path class="st2" d="M152.2,571.9l1.4,8.4l69.6-1.8l0,0c0.2-4.4-31.4-7.7-64.9-6.8L152.2,571.9z"></path>
<path class="st6" d="M274.6,399.5l-2,18.8l-0.5,4.4l-0.7,7l-15.1,145.2c2.6,8.6-1,17.9-8.7,22.6c-9,5.4-20.6,2.4-26-6.6  c-0.1-0.2-0.2-0.3-0.2-0.5c-5.4-9.3-2.3-21.2,6.9-26.8c0.9-0.5,1.9-1,2.9-1.3l-0.1-4.1l-0.4-12.8l-0.3-9.7l-0.6-19.2l-0.2-7.4  l-0.7-24.2l-0.7-23.3l-0.8-28.2l-0.6-21.7l7.8-2L274.6,399.5z"></path>
<path class="st1" d="M289.8,375c-0.7,3.6-1.3,5.9-1.8,6.7c-4,6.2-6.4-2.5-4.2,14.1c1.7,13.5-8.7,11.8-5,14.6  c6.2,4.8-2.4,6.9-6.1,9.4c-1.7,1.1,3,0.9,4.9,2.4c0.9,0.7-3.4,2.8-2.4,3.3c4.1,1.9,1.7,3.4-3.7,4.5c-9,1.9-26.5,2.8-37.1,3.1  c-3,0.1-5.5,0.2-7,0.2c-1.1,0-1.8,0-1.8,0s-2.7-1.7-3.8-6.9c-0.8-3.6-0.8-9,1.4-16.8c1.3-4.8,3.6-8.2,5-10.9c0.8-1.3,1.1-2.8,1-4.3  v0c-0.2-1.4-1.2-2.7-3.5-4.1c-4.1-2.5-1.8-7.7,1.4-12.6c3.1-4.6,6.9-9,6.9-10.6c0-3.4-25.5-75.6-25.5-75.6l9.4-109.1  c7.2-4.9,15.8-7.1,24.5-6.1c5.9,0.8,12.5,3.3,19.3,8.8c5.9,4.9,12,12.2,17.8,22.7C304.3,252.9,295,348.5,289.8,375z"></path>
<circle class="st6" cx="166.1" cy="74.3" r="54.7"></circle>
<path class="st0" d="M223.1,102.2c0,0-15.2,12.4-23.5,16c2.3-8,4.7-21.8,7-29.7c1.2-4.2,2.4-8.5,2.2-12.8c-0.2-4.4-2.1-8.9-5.8-11.2  c-4.7-2.9-10.9-1.4-13.8,3.3c-1.7,2.7-1.9,6-0.8,9c-3.6-0.2-5.7-4.4-6.1-8c-0.4-3.6-0.1-7.6-2.1-10.6c-1.9-3-5.7-4.3-9.3-4.2  c-3.5,0.1-6.9,1.6-10.1,3.3c-9.1,4.7-17.3,11.2-27.1,14.3c-2,0.6-4,1.1-6,1.3c0.1-5.9-1.9-11.6-5.5-16.3c-0.5,5.5-2.1,10.9-4.6,15.8  c-4.7-0.9-8.9-3.6-11.7-7.5c-3.1-4.4-3.8-10.1-3.1-15.5c0.3-2.4,0.9-4.8,1.8-7.2c1.4-0.3,2.8-0.8,4.2-1.4c3-1.3,5.6-3.2,7.9-5.5  c-3,0.1-6-0.1-9-0.6c0.1-0.2,0.1-0.3,0.2-0.5c1.7-3.7,3.6-7.6,6.9-10c3.3-2.4,8.4-2.9,11.2,0c15.4-24.3,47.6-31.4,71.9-16  c0.3,0.2,0.5,0.3,0.8,0.5c-2.1,2.4-3.8,5.2-4.8,8.3c3.2-1.7,6.7-2.9,10.2-3.7c2.5,2.8,4.1,6.1,3.4,9.7c4.1,2,12.2,5.4,8.4,7.6  C236.4,49,239.5,80,223.1,102.2L223.1,102.2z"></path>
<path class="st6" d="M155.2,478.2c-0.7,10.4-9.7,18.4-20.1,17.7c-0.2,0-0.3-0.1-0.5-0.1c-10.7-0.9-18.8-10.1-18.2-20.9  c0.1-1,0.3-2.1,0.5-3.1l-3.4-2.2l-10.7-7l-8.1-5.2L78.4,447l-6.3-4l-0.8-0.5l-19.5-12.6l-15.6-10.1l-1.3-0.9l-2.6-1.7L8.6,401.9  l-6.4-4.1c0,0,0,0,0,0c-0.2-0.4,13.2-7.1,13-7.5c-3.4-6.7-7.7-12.3-2.1-36.4l-5.6-10.1l14.4,12.3l3.3,2.8l5.4,4.5l66.2,56.5  l44.9,38.3C150.1,461,155.7,469.2,155.2,478.2z"></path>
<path class="st1" d="M143.1,270.6L68.9,384.8l29.8,33.3l-2,1.8l-25.4,22.5l-7.2,6.4l-13.3-2.7c0,0-2.6-4-16.5-6.1  c-13.9-2.1-5.8-6.8,0.3-16c1.5-2.2-4.2,1.3-4.6,0.5c-0.2-0.5-3.6-2-4.3-2.1c-2.8-0.5-0.1-2.1-4.1-3c-6.5-1.3-6.9,3.3-19.6-21.6  c0,0,0,0,0,0c-0.2-0.4-0.4-0.8-0.6-1.2c-3.4-6.7-0.9-25.3,4.6-49.4c8.4-36.7,24-86,37-124.8c9.8-29.3,41.5-45.1,70.8-35.3  c29.3,9.8,45.1,41.5,35.3,70.8C147.7,262.4,145.7,266.7,143.1,270.6L143.1,270.6z"></path>
<path class="st7" d="M172.6,563.7c0.8,0.1,1.6-0.4,1.8-1.2c0.1-0.4,0-0.9-0.3-1.2l-0.1-0.4l0.1-0.1c1.1-2,3.6-2.6,5.6-1.5  c0.9,0.5,1.6,1.4,1.9,2.5c0.9,3.1,2,6.2,2,9.4c0,1.4-0.3,2.8-0.7,4.1c3.7-5.9,6-12.5,6.9-19.4c0.2-1.7,0.3-3.5,0.4-5.2  c0-1.4,0-2.9-0.1-4.3c-0.6-7.7-3-15.2-7.1-21.8c-2.2-1.6-3.8-3.7-4.7-6.3c-0.3-0.9-0.5-1.9-0.6-2.8c0.3,0.1,1.5-3.8,1.3-4.1  c0.4-0.5,1.1-0.7,1.6-1.2c2.3-2.4,5-1.6,6,2.2c2.9,1.9,2.6,4.5,0.4,6.7c-1.4,1.4-1.8,3.5-3.1,5c0.1,0.2,0.2,0.3,0.3,0.4  c1.6,2.8,3,5.7,4.1,8.7c0.1-3.2,0.9-6.4,2.4-9.3c1.5-2.7,4-4.7,6.2-6.9c1.6-1.6,4.3-1.6,6,0c0.8,0.8,1.2,1.9,1.2,3l0,0.1  c-0.3,0.1-0.6,0.3-0.9,0.4c-1,0.5-1.4,1.7-0.9,2.8c0.3,0.5,0.7,0.9,1.3,1.1l0,0c-0.2,1-0.5,2-0.9,3c1.3,9.8-4.5,12.6-12.1,11.8  c-0.2,0.1-0.4,0.1-0.5,0.2c0.9,4.3,1.3,8.6,1.1,13c-0.1,2.6-0.5,5.1-1,7.6l0-0.1c0.9-2.8,2.7-5.1,5.2-6.7c3.6-2.3,8.4-2.7,12.2-4.4  c1.2-0.6,2.6-0.1,3.2,1.1c0.2,0.5,0.3,1.1,0.2,1.6l0,0.1c-0.6,0.1-1.1,0.3-1.6,0.5c-0.3,0.1-0.6,0.3-0.9,0.4c-1,0.5-1.4,1.7-0.9,2.8  c0.3,0.5,0.7,0.9,1.3,1.1l0,0l0.1,0c-1.2,2-2.7,3.9-4.5,5.4c-2.6,8.1-9.3,8.1-16.1,4.8l0,0c-1.2,3.3-2.7,6.4-4.6,9.4l-12-1.5  c0-0.1,0-0.3-0.1-0.4c1.1,0.2,2.2,0.3,3.3,0.2c-0.8-1.2-1.5-2.4-2.3-3.6c0,0,0,0,0-0.1c-0.4-0.6-0.8-1.2-1.1-1.8l0,0  C171.6,567,172,565.3,172.6,563.7L172.6,563.7z"></path>
</svg>
