<?xml version="1.0" encoding="UTF-8"?>
<!-- Generator: Adobe Illustrator 26.5.2, SVG Export Plug-In . SVG Version: 6.00 Build 0)  -->
<svg xmlns="http://www.w3.org/2000/svg" xmlns:xlink="http://www.w3.org/1999/xlink" version="1.1" id="Warstwa_1" x="0px" y="0px" viewBox="0 0 802 537" style="enable-background:new 0 0 802 537;" xml:space="preserve">
<style type="text/css">
	.st0{fill:#FFB8B9;}
	.st1{fill:#CCCCCC;}
	.st2{fill:#2F2E41;}
	.st3{fill:#3F3D56;}
	.st4{fill:#397EEA;}
</style>
<path class="st0" d="M658.2,321.5c0.5-0.2,1.1-0.3,1.6-0.3l21.9-44.5l-6.7-10l13.8-12.1l17.4,21.2l-35.4,51.4  c2.4,5.3,0,11.5-5.3,13.9c-5.3,2.4-11.5,0-13.9-5.3c-2.4-5.3,0-11.5,5.3-13.9C657.4,321.8,657.8,321.6,658.2,321.5L658.2,321.5z"></path>
<path class="st1" d="M695.6,260.7c-0.3,0.3-0.6,0.6-1,0.8l-22.4,13c-2.1,1.2-4.9,0.5-6.1-1.6c-0.1-0.1-0.1-0.2-0.2-0.3l-10.9-23  c-1-2-0.3-4.4,1.5-5.6l13.9-9.4c1.8-1.2,4.2-1,5.7,0.5l19.4,19.5C697.3,256.2,697.3,258.9,695.6,260.7L695.6,260.7z"></path>
<polygon class="st0" points="727.1,515.7 715.3,518.9 697.2,474.8 714.7,470.1 "></polygon>
<path class="st2" d="M705.9,517.8l22.8-6.2l0,0l3.9,14.4l0,0l-37.2,10.1l0,0l0,0C693.3,528.2,698,520,705.9,517.8z"></path>
<polygon class="st0" points="626,524.7 613.7,524.7 607.9,477.4 626,477.4 "></polygon>
<path class="st2" d="M604.9,521.2h23.6l0,0v14.9l0,0h-38.5l0,0l0,0C590.1,527.9,596.7,521.2,604.9,521.2z"></path>
<circle class="st0" cx="638.9" cy="194.2" r="24.6"></circle>
<path class="st2" d="M625.2,491h-16.8c-2.4,0-4.3-1.9-4.5-4.2c-5-79.4-2.1-136.3,9.2-179.2c0-0.2,0.1-0.4,0.2-0.6l0.9-2.2  c0.7-1.7,2.3-2.8,4.2-2.8h34.5c1.3,0,2.6,0.6,3.4,1.6l4.7,5.5c0.1,0.1,0.2,0.2,0.3,0.3c21.1,29.4,40,87,61.9,164.3  c0.7,2.3-0.6,4.8-3,5.5l-18,5.8c-2.1,0.7-4.4-0.3-5.4-2.3L650,385.7c-0.8-1.7-2.9-2.5-4.7-1.6c-1.1,0.5-1.8,1.5-1.9,2.7l-13.7,100.4  C629.4,489.3,627.5,491,625.2,491z"></path>
<path class="st1" d="M659.1,309.4c0,0-0.1,0-0.1,0l-41.8-1.3c-2.2-0.1-4.1-1.7-4.3-4c-5.3-42.9,9.2-54.4,15.7-57.4  c1.1-0.5,1.9-1.5,2-2.7l0.6-4.5c0.1-0.8,0.4-1.5,0.9-2.2c10.2-13.2,24.1-17.4,31.5-18.8c2.4-0.4,4.8,1.2,5.2,3.6c0,0.1,0,0.1,0,0.2  l0.8,6.5c0.1,0.6,0.3,1.2,0.7,1.7c21.3,27.8-2.4,68.8-7.4,76.8l0,0C662.1,308.6,660.6,309.4,659.1,309.4z"></path>
<path class="st2" d="M688.4,196.9c-5.5-7.7-12-14.6-19.5-20.4c-6.2-4.8-13.1-9-20.7-11c-7.6-2-16-1.6-23,2  c-6.9,3.7-14.1,11-14.2,18.9c0,2.5,0.6,5.9,3.1,5.5l0.7,0.1c6-1.2,12-2.4,18-3.6c2.6,8.9,5.1,17.7,7.7,26.6c0.5,1.9,1.3,4,3,4.8  c1.7,0.8,3.6,0,5.3-0.7c0.3-0.1,2.7-5.5,2.7-5.5c0.2-0.5,0.8-0.8,1.3-0.6c0.2,0.1,0.3,0.2,0.4,0.3l1.4,1.8c0.6,0.7,1.5,0.9,2.3,0.6  c9.8-4.1,19.6-8.2,29.4-12.3c1.4-0.6,2.9-1.3,3.3-2.7C690.1,199.4,689.2,198.1,688.4,196.9z"></path>
<path class="st3" d="M801,537H500c-0.6,0-1-0.4-1-1s0.4-1,1-1h301c0.6,0,1,0.4,1,1S801.5,537,801,537z"></path>
<path class="st4" d="M637.8,381.2c-0.7,0-1.3-0.2-1.9-0.6l-4.6-3.3c-0.8-0.6-1.8-0.6-2.6,0l-4.6,3.3c-1.4,1-3.4,0.7-4.5-0.7  c-0.6-0.8-0.8-1.9-0.5-2.9l1.7-5.4c0.3-0.9,0-1.9-0.8-2.5l-4.6-3.3c-1.4-1-1.8-3.1-0.7-4.5c0.6-0.8,1.6-1.3,2.6-1.3h5.6  c1,0,1.8-0.6,2.1-1.5l1.7-5.4c0.5-1.7,2.4-2.6,4-2.1c1,0.3,1.7,1.1,2.1,2.1l1.7,5.4c0.3,0.9,1.1,1.5,2.1,1.5h5.6  c1.8,0,3.2,1.4,3.2,3.2c0,1-0.5,2-1.3,2.6l-4.6,3.3c-0.8,0.6-1.1,1.6-0.8,2.5l1.7,5.4c0.4,1.3,0,2.8-1.2,3.6  C639.1,380.9,638.4,381.2,637.8,381.2z"></path>
<path class="st0" d="M655.2,370.5c4.9-3.4,6-10.1,2.6-15c-0.4-0.5-0.8-1-1.2-1.4l7.8-93.9l-23.1,3.2l-0.4,91.2  c-3.9,4.5-3.4,11.3,1.1,15.2C645.6,373.1,651.1,373.4,655.2,370.5z"></path>
<path class="st1" d="M665.9,273.7c-0.4,0-0.9-0.1-1.3-0.2l-24.8-7.3c-2.4-0.7-3.7-3.2-3-5.6c0-0.1,0.1-0.2,0.1-0.4l9.2-23.8  c0.8-2.1,3-3.3,5.2-2.8l16.4,3.6c2.1,0.5,3.6,2.4,3.5,4.5l-0.8,27.5C670.3,271.8,668.3,273.7,665.9,273.7L665.9,273.7z"></path>
<path class="st3" d="M432,391H7c-3.9,0-7-3.1-7-7V257c0-3.9,3.1-7,7-7h425c3.9,0,7,3.1,7,7v127C439,387.9,435.9,391,432,391z M7,252  c-2.8,0-5,2.2-5,5v127c0,2.8,2.2,5,5,5h425c2.8,0,5-2.2,5-5V257c0-2.8-2.2-5-5-5H7z"></path>
<path class="st4" d="M193,444.5c-0.8,0-1.6-0.3-2.3-0.8l-5.6-4.1c-0.9-0.7-2.2-0.7-3.2,0l-5.6,4.1c-1.8,1.3-4.2,0.9-5.5-0.9  c-0.7-1-0.9-2.3-0.6-3.5l2.1-6.6c0.4-1.1,0-2.3-1-3l-5.6-4.1c-1.8-1.3-2.1-3.7-0.9-5.5c0.7-1,1.9-1.6,3.2-1.6h6.9  c1.2,0,2.2-0.8,2.6-1.9l2.1-6.6c0.7-2.1,2.9-3.2,5-2.5c1.2,0.4,2.1,1.3,2.5,2.5l2.1,6.6c0.4,1.1,1.4,1.9,2.6,1.9h6.9  c2.2,0,3.9,1.8,3.9,3.9c0,1.3-0.6,2.4-1.6,3.2l-5.6,4.1c-1,0.7-1.4,1.9-1,3l2.1,6.6c0.5,1.6,0,3.4-1.4,4.4  C194.6,444.2,193.8,444.5,193,444.5z"></path>
<path class="st4" d="M249.5,444.5c-0.8,0-1.6-0.3-2.3-0.8l-5.6-4.1c-0.9-0.7-2.2-0.7-3.2,0l-5.6,4.1c-1.8,1.3-4.2,0.9-5.5-0.9  c-0.7-1-0.9-2.3-0.6-3.5l2.1-6.6c0.4-1.1,0-2.3-1-3l-5.6-4.1c-1.8-1.3-2.1-3.7-0.9-5.5c0.7-1,1.9-1.6,3.2-1.6h6.9  c1.2,0,2.2-0.8,2.6-1.9l2.1-6.6c0.7-2.1,2.9-3.2,5-2.5c1.2,0.4,2.1,1.3,2.5,2.5l2.1,6.6c0.4,1.1,1.4,1.9,2.6,1.9h6.9  c2.2,0,3.9,1.8,3.9,3.9c0,1.3-0.6,2.4-1.6,3.2l-5.6,4.1c-1,0.7-1.4,1.9-1,3l2.1,6.6c0.5,1.6,0,3.4-1.4,4.4  C251.1,444.2,250.3,444.5,249.5,444.5z"></path>
<path class="st4" d="M306,444.5c-0.8,0-1.6-0.3-2.3-0.8l-5.6-4.1c-1-0.7-2.2-0.7-3.2,0l-5.6,4.1c-1.8,1.3-4.2,0.9-5.5-0.9  c-0.7-1-0.9-2.3-0.6-3.5l2.1-6.6c0.4-1.1,0-2.3-1-3l-5.6-4.1c-1.8-1.3-2.1-3.7-0.9-5.5c0.7-1,1.9-1.6,3.2-1.6h6.9  c1.2,0,2.2-0.8,2.6-1.9l2.1-6.6c0.7-2.1,2.9-3.2,5-2.5c1.2,0.4,2.1,1.3,2.5,2.5l2.1,6.6c0.4,1.1,1.4,1.9,2.6,1.9h6.9  c2.2,0,3.9,1.8,3.9,3.9c0,1.3-0.6,2.4-1.6,3.2l-5.6,4.1c-1,0.7-1.4,1.9-1,3l2.1,6.6c0.5,1.6,0,3.4-1.4,4.4  C307.6,444.2,306.8,444.5,306,444.5z"></path>
<path class="st4" d="M362.5,444.5c-0.8,0-1.6-0.3-2.3-0.8l-5.6-4.1c-0.9-0.7-2.2-0.7-3.2,0l-5.6,4.1c-1.8,1.3-4.2,0.9-5.5-0.9  c-0.7-1-0.9-2.3-0.6-3.5l2.1-6.6c0.4-1.1,0-2.3-1-3l-5.6-4.1c-1.8-1.3-2.1-3.7-0.9-5.5c0.7-1,1.9-1.6,3.2-1.6h6.9  c1.2,0,2.2-0.8,2.6-1.9l2.1-6.6c0.7-2.1,2.9-3.2,5-2.5c1.2,0.4,2.1,1.3,2.5,2.5l2.1,6.6c0.4,1.1,1.4,1.9,2.6,1.9h6.9  c2.2,0,3.9,1.8,3.9,3.9c0,1.3-0.6,2.4-1.6,3.2l-5.6,4.1c-1,0.7-1.4,1.9-1,3l2.1,6.6c0.5,1.6,0,3.4-1.4,4.4  C364.1,444.2,363.3,444.5,362.5,444.5z"></path>
<path class="st3" d="M400,444.9c-0.9,0-1.8-0.3-2.5-0.8c-1.5-1.1-2.2-3.1-1.6-4.8l2.1-6.6c0.3-1,0-2-0.8-2.6l-5.6-4.1  c-1.9-1.4-2.4-4.1-1-6c0.8-1.1,2.1-1.8,3.5-1.8h6.9c1,0,1.9-0.6,2.2-1.6l2.1-6.6c0.7-2.3,3.2-3.5,5.4-2.8c1.3,0.4,2.3,1.5,2.8,2.8  l2.1,6.6c0.3,1,1.2,1.6,2.2,1.6h6.9c2.4,0,4.3,1.9,4.3,4.3c0,1.4-0.7,2.7-1.8,3.5l-5.6,4.1c-0.8,0.6-1.2,1.6-0.8,2.6l2.1,6.6  c0.7,2.3-0.5,4.7-2.8,5.4c-1.3,0.4-2.8,0.2-3.9-0.6l-5.6-4.1c-0.8-0.6-1.9-0.6-2.7,0l-5.6,4.1C401.8,444.6,401,444.9,400,444.9z   M409.5,437.5c0.9,0,1.8,0.3,2.5,0.8l5.6,4.1c1,0.8,2.5,0.5,3.2-0.5c0.4-0.6,0.6-1.4,0.3-2.1l-2.1-6.6c-0.6-1.8,0.1-3.7,1.6-4.8  l5.6-4.1c1-0.8,1.3-2.2,0.5-3.2c-0.4-0.6-1.1-1-1.9-1H418c-1.9,0-3.5-1.2-4.1-3l-2.1-6.6c-0.4-1.2-1.7-1.9-2.9-1.5  c-0.7,0.2-1.3,0.8-1.5,1.5l-2.1,6.6c-0.6,1.8-2.2,3-4.1,3h-6.9c-1.3,0-2.3,1-2.3,2.3c0,0.7,0.4,1.4,1,1.9l5.6,4.1  c1.5,1.1,2.2,3.1,1.6,4.8l-2.1,6.6c-0.4,1.2,0.3,2.5,1.5,2.9c0.7,0.2,1.5,0.1,2.1-0.3l5.6-4.1C407.7,437.8,408.6,437.5,409.5,437.5z  "></path>
<path class="st1" d="M55,280c-3.6,0-6.5,2.9-6.5,6.5s2.9,6.5,6.5,6.5h329c3.6,0,6.5-2.9,6.5-6.5s-2.9-6.5-6.5-6.5H55z"></path>
<path class="st1" d="M55,314c-3.6,0-6.5,2.9-6.5,6.5s2.9,6.5,6.5,6.5h329c3.6,0,6.5-2.9,6.5-6.5s-2.9-6.5-6.5-6.5H55z"></path>
<path class="st1" d="M55,348c-3.6,0-6.5,2.9-6.5,6.5s2.9,6.5,6.5,6.5h329c3.6,0,6.5-2.9,6.5-6.5s-2.9-6.5-6.5-6.5H55z"></path>
<path class="st1" d="M55,280c-3.6,0-6.5,2.9-6.5,6.5s2.9,6.5,6.5,6.5h329c3.6,0,6.5-2.9,6.5-6.5s-2.9-6.5-6.5-6.5H55z"></path>
<path class="st1" d="M55,314c-3.6,0-6.5,2.9-6.5,6.5s2.9,6.5,6.5,6.5h329c3.6,0,6.5-2.9,6.5-6.5s-2.9-6.5-6.5-6.5H55z"></path>
<path class="st1" d="M55,348c-3.6,0-6.5,2.9-6.5,6.5s2.9,6.5,6.5,6.5h329c3.6,0,6.5-2.9,6.5-6.5s-2.9-6.5-6.5-6.5H55z"></path>
<path class="st3" d="M432,141H7c-3.9,0-7-3.1-7-7V7c0-3.9,3.1-7,7-7h425c3.9,0,7,3.1,7,7v127C439,137.9,435.9,141,432,141z M7,2  C4.2,2,2,4.2,2,7v127c0,2.8,2.2,5,5,5h425c2.8,0,5-2.2,5-5V7c0-2.8-2.2-5-5-5H7z"></path>
<path class="st4" d="M193,194.5c-0.8,0-1.6-0.3-2.3-0.8l-5.6-4.1c-0.9-0.7-2.2-0.7-3.2,0l-5.6,4.1c-1.8,1.3-4.2,0.9-5.5-0.9  c-0.7-1-0.9-2.3-0.6-3.5l2.1-6.6c0.4-1.1,0-2.3-1-3l-5.6-4.1c-1.8-1.3-2.1-3.7-0.9-5.5c0.7-1,1.9-1.6,3.2-1.6h6.9  c1.2,0,2.2-0.8,2.6-1.9l2.1-6.6c0.7-2.1,2.9-3.2,5-2.5c1.2,0.4,2.1,1.3,2.5,2.5l2.1,6.6c0.4,1.1,1.4,1.9,2.6,1.9h6.9  c2.2,0,3.9,1.8,3.9,3.9c0,1.3-0.6,2.4-1.6,3.2l-5.6,4.1c-1,0.7-1.4,1.9-1,3l2.1,6.6c0.5,1.6,0,3.4-1.4,4.4  C194.6,194.2,193.8,194.5,193,194.5z"></path>
<path class="st4" d="M249.5,194.5c-0.8,0-1.6-0.3-2.3-0.8l-5.6-4.1c-0.9-0.7-2.2-0.7-3.2,0l-5.6,4.1c-1.8,1.3-4.2,0.9-5.5-0.9  c-0.7-1-0.9-2.3-0.6-3.5l2.1-6.6c0.4-1.1,0-2.3-1-3l-5.6-4.1c-1.8-1.3-2.1-3.7-0.9-5.5c0.7-1,1.9-1.6,3.2-1.6h6.9  c1.2,0,2.2-0.8,2.6-1.9l2.1-6.6c0.7-2.1,2.9-3.2,5-2.5c1.2,0.4,2.1,1.3,2.5,2.5l2.1,6.6c0.4,1.1,1.4,1.9,2.6,1.9h6.9  c2.2,0,3.9,1.8,3.9,3.9c0,1.3-0.6,2.4-1.6,3.2l-5.6,4.1c-1,0.7-1.4,1.9-1,3l2.1,6.6c0.5,1.6,0,3.4-1.4,4.4  C251.1,194.2,250.3,194.5,249.5,194.5z"></path>
<path class="st4" d="M306,194.5c-0.8,0-1.6-0.3-2.3-0.8l-5.6-4.1c-1-0.7-2.2-0.7-3.2,0l-5.6,4.1c-1.8,1.3-4.2,0.9-5.5-0.9  c-0.7-1-0.9-2.3-0.6-3.5l2.1-6.6c0.4-1.1,0-2.3-1-3l-5.6-4.1c-1.8-1.3-2.1-3.7-0.9-5.5c0.7-1,1.9-1.6,3.2-1.6h6.9  c1.2,0,2.2-0.8,2.6-1.9l2.1-6.6c0.7-2.1,2.9-3.2,5-2.5c1.2,0.4,2.1,1.3,2.5,2.5l2.1,6.6c0.4,1.1,1.4,1.9,2.6,1.9h6.9  c2.2,0,3.9,1.8,3.9,3.9c0,1.3-0.6,2.4-1.6,3.2l-5.6,4.1c-1,0.7-1.4,1.9-1,3l2.1,6.6c0.5,1.6,0,3.4-1.4,4.4  C307.6,194.2,306.8,194.5,306,194.5z"></path>
<path class="st3" d="M400,194.9c-0.9,0-1.8-0.3-2.5-0.8c-1.5-1.1-2.2-3.1-1.6-4.8l2.1-6.6c0.3-1,0-2-0.8-2.6l-5.6-4.1  c-1.9-1.4-2.4-4.1-1-6c0.8-1.1,2.1-1.8,3.5-1.8h6.9c1,0,1.9-0.6,2.2-1.6l2.1-6.6c0.7-2.3,3.2-3.5,5.4-2.8c1.3,0.4,2.3,1.5,2.8,2.8  l2.1,6.6c0.3,1,1.2,1.6,2.2,1.6h6.9c2.4,0,4.3,1.9,4.3,4.3c0,1.4-0.7,2.7-1.8,3.5l-5.6,4.1c-0.8,0.6-1.2,1.6-0.8,2.6l2.1,6.6  c0.7,2.3-0.5,4.7-2.8,5.4c-1.3,0.4-2.8,0.2-3.9-0.6l-5.6-4.1c-0.8-0.6-1.9-0.6-2.7,0l-5.6,4.1C401.8,194.6,401,194.9,400,194.9z   M409.5,187.5c0.9,0,1.8,0.3,2.5,0.8l5.6,4.1c1,0.8,2.5,0.5,3.2-0.5c0.4-0.6,0.6-1.4,0.3-2.1l-2.1-6.6c-0.6-1.8,0.1-3.7,1.6-4.8  l5.6-4.1c1-0.8,1.3-2.2,0.5-3.2c-0.4-0.6-1.1-1-1.9-1H418c-1.9,0-3.5-1.2-4.1-3l-2.1-6.6c-0.4-1.2-1.7-1.9-2.9-1.5  c-0.7,0.2-1.3,0.8-1.5,1.5l-2.1,6.6c-0.6,1.8-2.2,3-4.1,3h-6.9c-1.3,0-2.3,1-2.3,2.3c0,0.7,0.4,1.4,1,1.9l5.6,4.1  c1.5,1.1,2.2,3.1,1.6,4.8l-2.1,6.6c-0.4,1.2,0.3,2.5,1.5,2.9c0.7,0.2,1.5,0.1,2.1-0.3l5.6-4.1C407.7,187.8,408.6,187.5,409.5,187.5z  "></path>
<path class="st3" d="M343,194.7c-0.9,0-1.8-0.3-2.5-0.8c-1.5-1.1-2.2-3.1-1.6-4.8l2.1-6.6c0.3-1,0-2-0.8-2.6l-5.6-4.1  c-1.9-1.4-2.4-4.1-1-6c0.8-1.1,2.1-1.8,3.5-1.8h6.9c1,0,1.9-0.6,2.2-1.6l2.1-6.6c0.7-2.3,3.2-3.5,5.4-2.8c1.3,0.4,2.3,1.5,2.8,2.8  l2.1,6.6c0.3,1,1.2,1.6,2.2,1.6h6.9c2.4,0,4.3,1.9,4.3,4.3c0,1.4-0.7,2.7-1.8,3.5l-5.6,4.1c-0.8,0.6-1.2,1.6-0.8,2.6l2.1,6.6  c0.7,2.3-0.5,4.7-2.8,5.4c-1.3,0.4-2.8,0.2-3.9-0.6l-5.6-4.1c-0.8-0.6-1.9-0.6-2.7,0l-5.6,4.1C344.8,194.4,344,194.7,343,194.7z   M352.5,187.4c0.9,0,1.8,0.3,2.5,0.8l5.6,4.1c1,0.8,2.5,0.5,3.2-0.5c0.4-0.6,0.6-1.4,0.3-2.1l-2.1-6.6c-0.6-1.8,0.1-3.7,1.6-4.8  l5.6-4.1c1-0.8,1.3-2.2,0.5-3.2c-0.4-0.6-1.1-1-1.9-1H361c-1.9,0-3.5-1.2-4.1-3l-2.1-6.6c-0.4-1.2-1.7-1.9-2.9-1.5  c-0.7,0.2-1.3,0.8-1.5,1.5l-2.1,6.6c-0.6,1.8-2.2,3-4.1,3h-6.9c-1.3,0-2.3,1-2.3,2.3c0,0.7,0.4,1.4,1,1.9l5.6,4.1  c1.5,1.1,2.2,3.1,1.6,4.8l-2.1,6.6c-0.4,1.2,0.3,2.5,1.5,2.9c0.7,0.2,1.5,0.1,2.1-0.3l5.6-4.1C350.7,187.7,351.6,187.4,352.5,187.4z  "></path>
<path class="st1" d="M55,30c-3.6,0-6.5,2.9-6.5,6.5S51.4,43,55,43h329c3.6,0,6.5-2.9,6.5-6.5S387.6,30,384,30H55z"></path>
<path class="st1" d="M55,64c-3.6,0-6.5,2.9-6.5,6.5S51.4,77,55,77h329c3.6,0,6.5-2.9,6.5-6.5S387.6,64,384,64H55z"></path>
<path class="st1" d="M55,98c-3.6,0-6.5,2.9-6.5,6.5s2.9,6.5,6.5,6.5h329c3.6,0,6.5-2.9,6.5-6.5S387.6,98,384,98H55z"></path>
<path class="st1" d="M55,30c-3.6,0-6.5,2.9-6.5,6.5S51.4,43,55,43h329c3.6,0,6.5-2.9,6.5-6.5S387.6,30,384,30H55z"></path>
<path class="st1" d="M55,64c-3.6,0-6.5,2.9-6.5,6.5S51.4,77,55,77h329c3.6,0,6.5-2.9,6.5-6.5S387.6,64,384,64H55z"></path>
<path class="st1" d="M55,98c-3.6,0-6.5,2.9-6.5,6.5s2.9,6.5,6.5,6.5h329c3.6,0,6.5-2.9,6.5-6.5S387.6,98,384,98H55z"></path>
</svg>
