<svg width="12" height="12" fill="none" xmlns="http://www.w3.org/2000/svg"><path d="M6 1.333c.123 0 .222-.099.222-.222V.222a.222.222 0 10-.444 0v.89c0 .122.1.221.222.221zM11.333 5.333h-.889a.222.222 0 100 .445h.89a.222.222 0 100-.445zM1.556 5.333h-.89a.222.222 0 100 .445h.89a.222.222 0 100-.445zM9.614 1.627l-.628.629a.222.222 0 10.314.314l.628-.629a.222.222 0 10-.314-.314zM2.7 8.541l-.628.629a.222.222 0 10.314.314l.628-.628A.222.222 0 102.7 8.54zM9.3 8.541a.222.222 0 10-.314.315l.628.628a.222.222 0 10.314-.314L9.3 8.54zM2.7 2.57a.222.222 0 00.314 0 .222.222 0 000-.314l-.628-.629a.222.222 0 10-.314.314l.628.629zM6 2.889a2.67 2.67 0 00-2.667 2.667.222.222 0 10.445 0c0-1.226.997-2.223 2.222-2.223a.222.222 0 100-.444z" fill="#9CA0AC"/><path d="M6 1.778a3.782 3.782 0 00-3.778 3.778c0 1.58.976 2.98 2.445 3.533v2.022c0 .123.099.222.222.222h.222v.445c0 .123.1.222.222.222h1.334c.123 0 .222-.1.222-.222v-.445h.222c.123 0 .222-.099.222-.222V9.09a3.769 3.769 0 002.445-3.533A3.782 3.782 0 006 1.778zM7.042 8.72a.222.222 0 00-.153.212v.401H5.11v-.401a.222.222 0 00-.153-.212 3.326 3.326 0 01-2.291-3.164A3.337 3.337 0 016 2.222a3.337 3.337 0 013.333 3.334A3.326 3.326 0 017.042 8.72z" fill="#9CA0AC"/></svg>